<?xml version="1.0" encoding="UTF-8"?>
<svg version="1.1" xmlns="http://www.w3.org/2000/svg" width="616" height="835">
<path d="M0 0 C3.25418958 2.60335167 5.52093218 5.11165782 7 9 C7.18507253 11.60165868 7.26132821 14.09383438 7.24050903 16.69415283 C7.24307231 17.8630918 7.24307231 17.8630918 7.24568737 19.0556457 C7.24898374 21.66902638 7.23797617 24.28215076 7.22705078 26.89550781 C7.2264867 28.76799514 7.22680317 30.6404829 7.22793579 32.51296997 C7.22851042 37.59938638 7.21673823 42.68570878 7.20278788 47.77210331 C7.19029892 53.08656909 7.18911147 58.40103694 7.18673706 63.71551514 C7.18051689 73.78062066 7.16409881 83.84568281 7.14403808 93.91076922 C7.12169578 105.36892087 7.11068985 116.82707456 7.10064721 128.28524256 C7.07973306 151.85685243 7.04454664 175.42842379 7 199 C7.61548328 198.78951869 8.23096657 198.57903738 8.86510086 198.36217785 C9.67381008 198.08847016 10.4825193 197.81476248 11.31573486 197.53276062 C12.11684315 197.26040431 12.91795143 196.988048 13.74333572 196.70743847 C16.35581154 195.88845715 18.81913964 195.4860792 21.546875 195.26953125 C22.54170898 195.18864258 23.53654297 195.10775391 24.56152344 195.02441406 C25.6137207 194.95448242 26.66591797 194.88455078 27.75 194.8125 C28.87180664 194.73354492 29.99361328 194.65458984 31.14941406 194.57324219 C87.41066308 190.98606346 149.99466423 199.65769969 194.2890625 237.76171875 C197.27717253 240.42356819 200.13861541 243.20273607 203 246 C204.34964844 247.25683594 204.34964844 247.25683594 205.7265625 248.5390625 C235.39944301 276.84374103 252.39622764 317.30123499 260 357 C260.16371094 357.85271484 260.32742188 358.70542969 260.49609375 359.58398438 C270.28377112 413.82065941 261.22587556 478.56627062 230.57275391 525.16992188 C220.45294982 539.70126986 208.70131443 553.40917977 195.30078125 564.98828125 C187.60310795 571.71884449 180.16063556 578.70077149 173 586 C171.33333333 587.66666667 169.66666667 589.33333333 168 591 C166.81470703 592.20269531 166.81470703 592.20269531 165.60546875 593.4296875 C158.29772161 600.82007475 158.29772161 600.82007475 154.3125 604.1875 C148.08044043 609.51284598 142.43070864 615.49233511 136.66918945 621.31494141 C134.45400747 623.55118333 132.22573396 625.77426604 130 628 C129.13761719 628.87398437 128.27523438 629.74796875 127.38671875 630.6484375 C126.05060547 631.99808594 126.05060547 631.99808594 124.6875 633.375 C123.80449219 634.26960937 122.92148437 635.16421875 122.01171875 636.0859375 C119.91361201 638.16149532 117.73843235 640.09811891 115.4921875 642.01171875 C109.8094202 646.93781506 104.55101708 652.29985628 99.24536133 657.62426758 C97.44137915 659.43360933 95.63211335 661.23754319 93.82226562 663.04101562 C92.65072095 664.21322122 91.47948658 665.38573704 90.30859375 666.55859375 C89.77922714 667.08593613 89.24986053 667.6132785 88.70445251 668.15660095 C85.87776259 671.00061878 83.1755361 673.91241498 80.54980469 676.94360352 C77.13423958 680.88530506 73.55946901 684.63425086 69.89453125 688.34375 C69.24804123 688.99831177 68.60155121 689.65287354 67.93547058 690.32727051 C66.58318958 691.69325344 65.22944094 693.05778493 63.87426758 694.42089844 C62.48992454 695.81688012 61.11009093 697.21734692 59.73461914 698.62207031 C57.73503328 700.66405942 55.7227667 702.69271659 53.70703125 704.71875 C53.09342239 705.34986694 52.47981354 705.98098389 51.84761047 706.63122559 C51.26988388 707.20602661 50.69215729 707.78082764 50.09692383 708.37304688 C49.59397293 708.88186401 49.09102203 709.39068115 48.5728302 709.91491699 C47 711 47 711 43 711 C42.91660873 711.56441929 42.83321747 712.12883858 42.74729919 712.71036148 C41.76716953 715.7133657 40.19026687 717.32224238 38.04321289 719.63421631 C37.22571564 720.51601311 36.40821838 721.39780991 35.56594849 722.30632782 C31.53179188 726.54129025 27.44160711 730.71409776 23.30859375 734.85253906 C22.38539337 735.78070435 21.46219299 736.70886963 20.51101685 737.66516113 C18.00936684 740.17976179 15.50453914 742.6911715 12.99864578 745.20154285 C11.42768266 746.77546081 9.85729818 748.34995396 8.28707886 749.92461395 C3.3574008 754.86791175 -1.57423435 759.80924436 -6.50878429 764.747679 C-12.17587666 770.41925995 -17.83634913 776.09734075 -23.49121571 781.781111 C-27.88617305 786.19774106 -32.28693305 790.60853476 -36.69207287 795.01500869 C-39.31325698 797.63723541 -41.93200906 800.26178044 -44.54470825 802.89246368 C-47.45765473 805.82507779 -50.38255893 808.74548377 -53.30859375 811.66503906 C-54.15976776 812.52542786 -55.01094177 813.38581665 -55.88790894 814.27227783 C-63.88937857 822.21853738 -72.25503963 828.94983588 -83.6875 830.5 C-87 830 -87 830 -89.8125 828 C-94.94757611 820.95760991 -94.28036314 812.57994951 -94.23046875 804.22265625 C-94.23037308 802.91932343 -94.2302774 801.6159906 -94.23017883 800.27316284 C-94.22900948 796.63713247 -94.21443157 793.00126183 -94.19723511 789.36527634 C-94.18414129 786.268018 -94.17862686 783.17076259 -94.17279625 780.07348347 C-94.07322375 730.38155187 -93.49659047 680.68918615 -93 631 C-93.92592705 631.31572196 -93.92592705 631.31572196 -94.87055969 631.63782215 C-95.68067001 631.91152984 -96.49078033 632.18523752 -97.32543945 632.46723938 C-98.12834915 632.73959569 -98.93125885 633.011952 -99.75849915 633.29256153 C-102.24674075 634.07787367 -104.5887821 634.50657839 -107.1875 634.73046875 C-108.1165918 634.81135742 -109.04568359 634.89224609 -110.00292969 634.97558594 C-111.48647949 635.0804834 -111.48647949 635.0804834 -113 635.1875 C-114.59569824 635.30593262 -114.59569824 635.30593262 -116.22363281 635.42675781 C-153.33110851 637.87655115 -190.77159594 635.79008771 -226 623 C-226.66 622.76168457 -227.32 622.52336914 -228 622.27783203 C-251.87860853 613.50990546 -272.87171321 600.60017103 -290.671875 582.32421875 C-292.68772537 580.31175068 -294.74111422 578.49550049 -296.9375 576.6875 C-331.9067093 546.4324497 -345.44964991 493.02196153 -348.82348633 448.98999023 C-351.88560196 397.12037732 -343.12454326 332.28832269 -307.46337891 291.62792969 C-302.08512534 285.64491421 -296.59620353 279.77949612 -291 274 C-290.18917969 273.15953125 -289.37835938 272.3190625 -288.54296875 271.453125 C-284.94849684 267.7948459 -281.20229231 264.38040906 -277.3203125 261.03125 C-268.19649594 253.04407052 -259.51021465 244.63295813 -251 236 C-249.33333333 234.33333333 -247.66666667 232.66666667 -246 231 C-245.13761719 230.12601563 -244.27523437 229.25203125 -243.38671875 228.3515625 C-242.49597656 227.45179688 -241.60523438 226.55203125 -240.6875 225.625 C-239.80449219 224.73039063 -238.92148438 223.83578125 -238.01171875 222.9140625 C-235.8020849 220.72852827 -233.50512375 218.67876111 -231.15234375 216.6484375 C-226.8761583 212.94176887 -222.86376064 209.01181706 -218.875 205 C-218.19824219 204.32710937 -217.52148438 203.65421875 -216.82421875 202.9609375 C-213.13329126 199.26287088 -209.64669089 195.47500516 -206.28271484 191.47851562 C-204.7682534 189.7328783 -203.1516198 188.22646029 -201.375 186.75 C-191.2915644 178.19774812 -181.84362498 169.00656947 -172.51635742 159.64672852 C-170.67545292 157.80041754 -168.82919728 155.95957727 -166.98242188 154.11914062 C-165.78353312 152.91959162 -164.58495431 151.71973274 -163.38671875 150.51953125 C-162.5786805 149.71452934 -162.5786805 149.71452934 -161.75431824 148.89326477 C-159.08654538 146.20936123 -156.53531775 143.47800011 -154.08818054 140.59115601 C-148.80911414 134.53990718 -143.08368238 128.91907167 -137.41455078 123.23754883 C-136.14716781 121.96388982 -134.87997116 120.69004539 -133.61294556 119.41603088 C-129.47728872 115.25948314 -125.33643199 111.10813541 -121.1953125 106.95703125 C-119.76439091 105.5220578 -118.33350195 104.0870518 -116.90264511 102.65201378 C-110.18350176 95.91385905 -103.46197776 89.17809036 -96.73750126 82.44525796 C-88.99274262 74.6907138 -81.25634788 66.92794804 -73.52689373 59.15814954 C-67.53710288 53.13817551 -61.53963411 47.1259202 -55.53638828 41.11936396 C-51.95701726 37.53764695 -48.38100159 33.95272736 -44.81308365 30.35959816 C-41.45817673 26.9813642 -38.09381679 23.6128362 -34.72210312 20.25137901 C-33.49037305 19.02014312 -32.26202632 17.78551121 -31.03744507 16.54716492 C-13.28061537 -1.39795951 -13.28061537 -1.39795951 0 0 Z M1.31347656 206.57299805 C0.59643555 207.29527588 -0.12060547 208.01755371 -0.859375 208.76171875 C-2.03886719 209.94604492 -2.03886719 209.94604492 -3.2421875 211.15429688 C-4.48355469 212.40823242 -4.48355469 212.40823242 -5.75 213.6875 C-6.56210937 214.50412109 -7.37421875 215.32074219 -8.2109375 216.16210938 C-9.78591949 217.74606928 -11.35992591 219.33099994 -12.93286133 220.91699219 C-15.28221255 223.28437906 -17.64161637 225.64161637 -20 228 C-20.71800781 228.72960937 -21.43601562 229.45921875 -22.17578125 230.2109375 C-22.88089844 230.92507812 -23.58601562 231.63921875 -24.3125 232.375 C-25.00988281 233.08398438 -25.70726562 233.79296875 -26.42578125 234.5234375 C-28.46018481 236.48066339 -30.51829485 238.32186041 -32.65820312 240.15820312 C-36.96592233 243.91730852 -41.01670586 247.88878939 -45.04296875 251.9453125 C-45.77445633 252.67821503 -46.50594391 253.41111755 -47.25959778 254.16622925 C-49.57128366 256.48345622 -51.87945358 258.80414855 -54.1875 261.125 C-55.7465109 262.68903526 -57.30575374 264.25283936 -58.86523438 265.81640625 C-61.72433674 268.68363253 -64.58211637 271.55216232 -67.43823242 274.42236328 C-70.28782027 277.28592713 -73.14341523 280.14341523 -76 283 C-77.16354417 284.17370272 -78.32637292 285.34811536 -79.48828125 286.5234375 C-80.7629738 287.80733836 -82.03771434 289.09119159 -83.3125 290.375 C-83.93833984 291.00921875 -84.56417969 291.6434375 -85.20898438 292.296875 C-85.83740234 292.92851562 -86.46582031 293.56015625 -87.11328125 294.2109375 C-87.66798096 294.77087402 -88.22268066 295.33081055 -88.79418945 295.90771484 C-90.73847404 297.75193388 -92.72595323 299.50331959 -94.75390625 301.25390625 C-98.95483834 304.91069091 -102.90248335 308.77438277 -106.82421875 312.7265625 C-107.53351028 313.43726898 -108.24280182 314.14797546 -108.97358704 314.88021851 C-111.21394485 317.12611477 -113.45078512 319.37547627 -115.6875 321.625 C-117.1983336 323.14085837 -118.7093994 324.65648534 -120.22070312 326.171875 C-122.99191632 328.95120954 -125.76180255 331.73185116 -128.5300293 334.51416016 C-131.34888779 337.34725518 -134.1740139 340.1740139 -137 343 C-138.09069282 344.10072182 -139.18063594 345.20218746 -140.26953125 346.3046875 C-141.45048028 347.49483191 -142.63147057 348.68493537 -143.8125 349.875 C-144.6797168 350.75478516 -144.6797168 350.75478516 -145.56445312 351.65234375 C-148.59673205 354.70137559 -151.67982919 357.62947953 -154.9375 360.4375 C-159.22305794 364.13953447 -163.20945838 368.09747078 -167.1875 372.125 C-167.87263672 372.81464844 -168.55777344 373.50429688 -169.26367188 374.21484375 C-170.58851784 375.54861553 -171.91237522 376.88337021 -173.23510742 378.21923828 C-175.48261851 380.486958 -177.74236488 382.74236488 -180 385 C-180.79019531 385.80179688 -181.58039063 386.60359375 -182.39453125 387.4296875 C-183.19246094 388.23664063 -183.99039063 389.04359375 -184.8125 389.875 C-185.60269531 390.67679688 -186.39289063 391.47859375 -187.20703125 392.3046875 C-189.29942966 394.32392512 -191.39904914 396.2161693 -193.60546875 398.1015625 C-199.18703591 402.94237624 -204.31464723 408.24418951 -209.5 413.5 C-215.21308688 419.29071537 -220.90177312 425.02595078 -227.09179688 430.31445312 C-230.73358722 433.5313058 -234.09674751 437.03475748 -237.5 440.5 C-242.2680541 445.3549039 -247.08812139 450.04428513 -252.24560547 454.48583984 C-260.06095015 461.17399835 -260.06095015 461.17399835 -265 470 C-265.25196823 473.25100364 -265.25196823 473.25100364 -265 476 C-260.07925806 478.37380239 -256.51812921 479.3752335 -250.96578979 479.37854004 C-250.29363406 479.38307017 -249.62147833 479.3876003 -248.92895424 479.3922677 C-246.695761 479.40381645 -244.46317549 479.39427592 -242.22998047 479.38476562 C-240.62131364 479.38887412 -239.01264978 479.39433663 -237.4039917 479.40104675 C-233.9494749 479.41274486 -230.49511775 479.41526582 -227.04058456 479.41069031 C-221.57776516 479.4038688 -216.11515516 479.41976778 -210.65237427 479.43908691 C-198.07373682 479.48011872 -185.49510541 479.49149098 -172.91641235 479.50261688 C-161.37993878 479.51312429 -149.84356607 479.52988595 -138.30715477 479.57071257 C-132.87677222 479.5890727 -127.44662987 479.59296009 -122.01622367 479.58577728 C-118.63987191 479.58425618 -115.26364057 479.59503402 -111.88732147 479.60915565 C-110.32201466 479.61316016 -108.756685 479.61203012 -107.19138718 479.60538292 C-105.05404444 479.59700347 -102.91753544 479.60698807 -100.78024292 479.62145996 C-99.58455122 479.62217247 -98.38885952 479.62288498 -97.15693474 479.62361908 C-93.67488551 480.0387613 -91.76958337 480.87695613 -89 483 C-88.41650391 485.29066467 -88.41650391 485.29066467 -88.4765625 488.09008789 C-88.48743896 489.18630966 -88.49831543 490.28253143 -88.50952148 491.41197205 C-88.54762939 492.64887283 -88.5857373 493.88577362 -88.625 495.16015625 C-88.64814863 496.50875765 -88.66896808 497.85740058 -88.68774414 499.20606995 C-88.7361635 502.32576393 -88.8014057 505.44461681 -88.87646484 508.56378174 C-89.01992786 514.63040548 -89.11316402 520.69757494 -89.20703125 526.76513672 C-89.41810349 540.06296129 -89.66947234 553.35986846 -89.92712402 566.65686035 C-90.04991659 573.02705912 -90.16932933 579.39732125 -90.2890625 585.76757812 C-90.52281317 598.17844812 -90.76019077 610.58924569 -91 623 C-86.65487327 623 -84.78871627 620.36448256 -81.8125 617.5 C-81.18045654 616.9006665 -80.54841309 616.30133301 -79.8972168 615.68383789 C-73.28031971 609.35985415 -66.79576604 602.89794752 -60.3125 596.4375 C-59.78185944 595.90962891 -59.25121887 595.38175781 -58.70449829 594.83789062 C-57.17105769 593.31029119 -55.6415181 591.77889736 -54.11328125 590.24609375 C-53.22423096 589.35591553 -52.33518066 588.4657373 -51.41918945 587.54858398 C-48.98113243 585.05405841 -48.98113243 585.05405841 -46.91772461 582.38427734 C-45.13912214 580.17296841 -43.36702684 578.42853117 -41.203125 576.60546875 C-24.90194158 562.64429392 -9.98556902 547.09653132 5.13183594 531.8840332 C7.74904301 529.25049398 10.37461405 526.62538595 13 524 C14.16354417 522.82629728 15.32637292 521.65188464 16.48828125 520.4765625 C17.7629738 519.19266164 19.03771434 517.90880841 20.3125 516.625 C20.93833984 515.99078125 21.56417969 515.3565625 22.20898438 514.703125 C25.29858854 511.59767671 28.41998436 508.59719979 31.75 505.75 C37.34650497 500.9207084 42.48612513 495.6203068 47.6875 490.375 C48.71655953 489.34090959 49.74585507 488.30705398 50.77539062 487.2734375 C52.66772395 485.37302143 54.5584121 483.471024 56.44799805 481.56787109 C58.96018506 479.04006252 61.4799923 476.5200077 64 474 C65.01784881 472.97226621 66.0349162 471.94375718 67.05078125 470.9140625 C68.13798785 469.81767563 69.2252279 468.72132192 70.3125 467.625 C70.84294922 467.08617187 71.37339844 466.54734375 71.91992188 465.9921875 C74.71416595 463.18121143 77.55426893 460.49724325 80.57421875 457.9296875 C86.88300797 452.47503223 92.64016017 446.42659146 98.5 440.5 C111.69437621 427.1553217 111.69437621 427.1553217 117.88085938 421.89648438 C123.1504167 417.18059482 128.03090104 412.0280877 133 407 C145.98059318 393.86531272 145.98059318 393.86531272 152.23828125 388.5390625 C155.31531504 385.85092211 158.14370992 382.91859442 161 380 C165.35054461 375.5877703 169.71158332 371.31894385 174.546875 367.4296875 C177.32075842 364.70054414 177.96373337 362.33848858 178.375 358.5 C178.29842888 355.02407006 178.29842888 355.02407006 176.3983984 352.81242466 C173.20276754 350.39754639 171.23646524 350.50051829 167.25062561 350.50120544 C166.57286605 350.49582089 165.89510649 350.49043634 165.19680876 350.48488861 C162.92649188 350.47161742 160.65725622 350.48676268 158.38696289 350.50170898 C156.75903323 350.49788593 155.13110695 350.49226701 153.50318909 350.48498535 C149.99782231 350.47302869 146.49275501 350.47352868 142.98738289 350.48357964 C137.44496486 350.49912731 131.90285507 350.48547154 126.36045837 350.46754456 C115.59529472 350.43670987 104.83022498 350.43522396 94.06502533 350.43719482 C80.36571889 350.43858722 66.6664847 350.42826401 52.96723169 350.3886171 C47.45738631 350.37367287 41.94781319 350.37396148 36.4379636 350.38609493 C33.01027013 350.39080323 29.58268102 350.38329013 26.1550045 350.37255096 C24.56550649 350.37014325 22.97599106 350.37288574 21.38651276 350.38115883 C19.21618526 350.39177956 17.04665971 350.38402969 14.87635803 350.37181091 C13.66202119 350.37239722 12.44768435 350.37298353 11.19654942 350.37358761 C7.69346469 349.96417456 5.79088644 349.12454789 3 347 C2.39199829 344.95014954 2.39199829 344.95014954 2.41650391 342.5559082 C2.41369415 341.64809097 2.4108844 340.74027374 2.4079895 339.8049469 C2.43061859 338.81357224 2.45324768 337.82219757 2.4765625 336.80078125 C2.48307327 335.23861122 2.48307327 335.23861122 2.48971558 333.6448822 C2.51055808 330.2000791 2.56753666 326.75687149 2.625 323.3125 C2.64710785 320.90659244 2.66726675 318.50066625 2.68554688 316.09472656 C2.84252316 298.51820607 3.21687801 280.94231618 3.64086914 263.37036133 C4.10238301 243.91306265 4.10287906 224.46155302 4 205 C2.73751064 204.88632242 2.73751064 204.88632242 1.31347656 206.57299805 Z " fill="#D8FC33" transform="translate(351,3)"/>
<path d="M0 0 C0 3.95564164 -1.40521394 5.10866696 -4 8 C-4.99 8.66 -5.98 9.32 -7 10 C-8.19232613 12.05003955 -8.19232613 12.05003955 -9 14 C-9.80859375 12.328125 -9.80859375 12.328125 -10 10 C-7.91015625 7.421875 -7.91015625 7.421875 -5.0625 4.75 C-4.12535156 3.85796875 -3.18820313 2.9659375 -2.22265625 2.046875 C-1.48917969 1.37140625 -0.75570312 0.6959375 0 0 Z " fill="#DEFC26" transform="translate(205,135)"/>
<path d="M0 0 C0.33 0.99 0.66 1.98 1 3 C-1.31 4.98 -3.62 6.96 -6 9 C-6.66 8.67 -7.32 8.34 -8 8 C-5.36 5.36 -2.72 2.72 0 0 Z " fill="#D9FA45" transform="translate(389,502)"/>
<path d="M0 0 C0.33 0.99 0.66 1.98 1 3 C-0.65 4.65 -2.3 6.3 -4 8 C-4.99 7.67 -5.98 7.34 -7 7 C-4.69 4.69 -2.38 2.38 0 0 Z " fill="#D8FB44" transform="translate(397,494)"/>
<path d="M0 0 C0.33 0.66 0.66 1.32 1 2 C-1.47812494 5.45167403 -2.79606135 7.23163306 -7 8 C-6.02133662 6.85373678 -5.04205413 5.70800212 -4.0625 4.5625 C-3.51722656 3.92441406 -2.97195313 3.28632813 -2.41015625 2.62890625 C-1.63204305 1.73008851 -0.84063472 0.84063472 0 0 Z " fill="#D9FA46" transform="translate(482,411)"/>
<path d="M0 0 C0.66 0 1.32 0 2 0 C1.34 3.96 0.68 7.92 0 12 C-0.33 12 -0.66 12 -1 12 C-1.02687279 10.18757948 -1.04633715 8.37504767 -1.0625 6.5625 C-1.07410156 5.55316406 -1.08570313 4.54382813 -1.09765625 3.50390625 C-1 1 -1 1 0 0 Z " fill="#D8F74E" transform="translate(5,458)"/>
</svg>
